<svg id="logo-final-01" xmlns="http://www.w3.org/2000/svg" xmlns:xlink="http://www.w3.org/1999/xlink" width="270" height="87" viewBox="0 0 270 87">
  <defs>
    <clipPath id="clip-path">
      <rect id="Rectangle_3" data-name="Rectangle 3" width="270" height="87" transform="translate(0 0.097)" fill="#f16a85"/>
    </clipPath>
    <linearGradient id="linear-gradient" y1="0.5" x2="1" y2="0.5" gradientUnits="objectBoundingBox">
      <stop offset="0" stop-color="#fff"/>
      <stop offset="1" stop-color="#e17386"/>
    </linearGradient>
  </defs>
  <g id="a" transform="translate(0 -0.097)">
    <g id="Mask_Group_1" data-name="Mask Group 1" clip-path="url(#clip-path)">
      <g id="logo-final-01-2" data-name="logo-final-01" transform="translate(0.15 0.097)">
        <g id="a-2" data-name="a">
          <rect id="Rectangle_4" data-name="Rectangle 4" width="269.7" height="87" fill="url(#linear-gradient)"/>
        </g>
        <g id="c">
          <path id="Path_40" data-name="Path 40" d="M37.932,24.012a3.987,3.987,0,0,0-3.654,4v1.653H44.2V58.638H34.278v1.653a4.067,4.067,0,0,0,4,4.089H94.743a4.084,4.084,0,0,0,4.089-4.089V28.1a4.063,4.063,0,0,0-3.741-4H93.438l-.87-4.35a2.507,2.507,0,0,0-2.436-2.088h-15.4a2.6,2.6,0,0,0-2.523,2.088l-.87,4.35H37.932ZM34.278,32.1V56.289H41.76V32.1H34.278Zm37.758,5.829a7.54,7.54,0,0,0-4.35-1.305,7.983,7.983,0,0,0-8,8c0,4.437,2.175,6.438,5.307,7.482a7.991,7.991,0,0,1,4.35-14.7c4.437,0,1.827.174,2.7.522h0Zm-5.481-8.439a13.568,13.568,0,0,1,5.568,1.131h0a14.959,14.959,0,0,1,4.785,3.219h0a14.959,14.959,0,0,1,3.219,4.785h0A15.148,15.148,0,0,1,81.258,44.2a15.6,15.6,0,0,1-1.131,5.655h0a15.978,15.978,0,0,1-3.219,4.785h0a14.959,14.959,0,0,1-4.785,3.219h0a15.148,15.148,0,0,1-5.568,1.131A13.975,13.975,0,0,1,60.9,57.855h0a15.978,15.978,0,0,1-4.785-3.219h0A14.959,14.959,0,0,1,52.9,49.851h0A15.244,15.244,0,0,1,51.765,44.2,14.453,14.453,0,0,1,52.9,38.628h0a14.959,14.959,0,0,1,3.219-4.785h0A14.959,14.959,0,0,1,60.9,30.624h0a15.244,15.244,0,0,1,5.655-1.131h0Zm6.96,7.656A9.164,9.164,0,0,0,70.3,34.974a9.749,9.749,0,0,0-7.656,0,10.222,10.222,0,0,0-5.394,5.394,11.121,11.121,0,0,0-.783,3.828,9.417,9.417,0,0,0,.783,3.828,10.026,10.026,0,0,0,2.175,3.219,11.66,11.66,0,0,0,3.219,2.175,9.126,9.126,0,0,0,3.828.783,9.416,9.416,0,0,0,3.828-.783,9.585,9.585,0,0,0,3.219-2.175,10.026,10.026,0,0,0,2.175-3.219,9.1,9.1,0,0,0,.7-3.828,11.073,11.073,0,0,0-.7-3.828,11.07,11.07,0,0,0-2.175-3.219Z" fill="#333" fill-rule="evenodd"/>
          <path id="Path_41" data-name="Path 41" d="M195.663,47.763h.435c.435,0,.7,0,.87-.261a1.074,1.074,0,0,0,.348-.7.721.721,0,0,0-.261-.7,1.063,1.063,0,0,0-.783-.261h-.609v1.827Zm2.958-.957a1.861,1.861,0,0,1-.609,1.566,2.855,2.855,0,0,1-1.827.522h-.522v2.175h-1.3V44.805h2a2.6,2.6,0,0,1,1.74.522,1.687,1.687,0,0,1,.609,1.479h0Zm6.264,4.263H203.58v-2.7h-2.436v2.7h-1.3V44.805h1.3v2.436h2.436V44.805h1.305Zm7.221-3.132a3.19,3.19,0,0,1-.783,2.349,3.412,3.412,0,0,1-4.35,0,3.19,3.19,0,0,1-.783-2.349,3.19,3.19,0,0,1,.783-2.349,3.412,3.412,0,0,1,4.35,0,3.19,3.19,0,0,1,.783,2.349Zm-4.524,0a2.112,2.112,0,0,0,.435,1.566,1.46,1.46,0,0,0,1.218.522q1.566,0,1.566-2.088t-1.566-2.088c-1.044,0-.957.174-1.218.522a2.583,2.583,0,0,0-.435,1.566h0Zm8,3.132h-1.3V45.936h-1.653V44.805h4.7v1.131h-1.653v5.133Zm8.091-3.132a3.19,3.19,0,0,1-.783,2.349,3.412,3.412,0,0,1-4.35,0,3.19,3.19,0,0,1-.783-2.349,3.19,3.19,0,0,1,.783-2.349,3.412,3.412,0,0,1,4.35,0,3.19,3.19,0,0,1,.783,2.349Zm-4.524,0a2.583,2.583,0,0,0,.435,1.566,1.46,1.46,0,0,0,1.218.522q1.566,0,1.566-2.088t-1.566-2.088c-1.044,0-.87.174-1.218.522a2.583,2.583,0,0,0-.435,1.566h0ZM230.9,49.329a1.565,1.565,0,0,1-.609,1.305,2.508,2.508,0,0,1-1.653.522,3.664,3.664,0,0,1-1.74-.348V49.59c.435.174.783.348,1.044.435.261,0,.522.087.783.087a.937.937,0,0,0,.7-.174.526.526,0,0,0,.261-.522c0-.261,0-.261-.087-.348,0-.087-.174-.174-.261-.261-.174,0-.435-.261-.783-.435a3.8,3.8,0,0,1-.87-.522,1.56,1.56,0,0,1-.435-.609,2.54,2.54,0,0,1-.174-.783,1.771,1.771,0,0,1,.522-1.3,2.112,2.112,0,0,1,1.566-.435,2.449,2.449,0,0,1,.957.087,1.837,1.837,0,0,1,.87.348L230.55,46.2a2,2,0,0,0-.783-.261h-.609a.828.828,0,0,0-.609.174c-.174.087-.174.261-.174.435v.261l.261.261c.087,0,.435.261.87.435a2.75,2.75,0,0,1,1.218.87,1.865,1.865,0,0,1,.348,1.044h0Zm3.48,1.74h-1.305V45.936H231.42V44.805h4.7v1.131h-1.653v5.133Zm7.743-6.264v4a2,2,0,0,1-.348,1.218,1.9,1.9,0,0,1-.87.783,3.313,3.313,0,0,1-1.392.261,2.451,2.451,0,0,1-1.827-.609,2.228,2.228,0,0,1-.7-1.653v-4h1.3v3.828a1.512,1.512,0,0,0,.261,1.044,1.49,1.49,0,0,0,1.914,0,1.855,1.855,0,0,0,.261-1.044V44.805h1.392Zm6.7,3.045a2.9,2.9,0,0,1-.87,2.349,3.652,3.652,0,0,1-2.523.783h-1.74V44.718H245.6a3.19,3.19,0,0,1,2.349.783,3.151,3.151,0,0,1,.87,2.262h0Zm-1.392,0c0-1.305-.609-2-1.74-2h-.7v4.089h.609c1.3,0,1.914-.7,1.914-2.088h-.087Zm2.7,3.132V44.718h1.305v6.264Zm8.526-3.132a3.19,3.19,0,0,1-.783,2.349,3.412,3.412,0,0,1-4.35,0,3.19,3.19,0,0,1-.783-2.349,3.19,3.19,0,0,1,.783-2.349,3.412,3.412,0,0,1,4.35,0,3.19,3.19,0,0,1,.783,2.349Zm-4.524,0a2.112,2.112,0,0,0,.435,1.566,1.46,1.46,0,0,0,1.218.522q1.566,0,1.566-2.088t-1.566-2.088c-1.044,0-.957.174-1.218.522a2.583,2.583,0,0,0-.435,1.566h0Z" fill="#333"/>
          <path id="Path_42" data-name="Path 42" d="M175.827,58.638a1.46,1.46,0,0,1-.522,1.218,2.583,2.583,0,0,1-1.566.435h-.87v2.262h-.348V57.072h1.305c1.3,0,2,.522,2,1.566Zm-2.958,1.305h.783a2.445,2.445,0,0,0,1.3-.261,1.186,1.186,0,0,0,.435-1.044,1.391,1.391,0,0,0-.348-.957,2.3,2.3,0,0,0-1.218-.261h-.957Zm8.178,2.61H180.7v-2.7H177.48v2.7h-.348V57.072h.348v2.436H180.7V57.072h.348Zm6.264-2.784a3.175,3.175,0,0,1-.7,2.088,2.523,2.523,0,0,1-3.654,0,3.48,3.48,0,0,1,0-4.176,2.523,2.523,0,0,1,3.654,0,3.143,3.143,0,0,1,.609,2.088h.087Zm-4.524,0a2.855,2.855,0,0,0,.522,1.827,1.792,1.792,0,0,0,1.479.609,1.949,1.949,0,0,0,1.479-.609,3.458,3.458,0,0,0,0-3.654,2.1,2.1,0,0,0-2.958,0,2.855,2.855,0,0,0-.522,1.827Zm7.047,2.784h-.348V57.42h-1.827v-.348h4v.348h-1.74v5.133Zm7.134-2.784a3.175,3.175,0,0,1-.7,2.088,2.523,2.523,0,0,1-3.654,0,3.48,3.48,0,0,1,0-4.176,2.523,2.523,0,0,1,3.654,0,3.175,3.175,0,0,1,.7,2.088Zm-4.524,0a2.855,2.855,0,0,0,.522,1.827,1.792,1.792,0,0,0,1.479.609,2.1,2.1,0,0,0,1.479-.609,3.458,3.458,0,0,0,0-3.654,2.1,2.1,0,0,0-2.958,0,2.855,2.855,0,0,0-.522,1.827Zm8,0h2v2.523a4.035,4.035,0,0,1-1.827.348,3.1,3.1,0,0,1-2-.7,3.175,3.175,0,0,1-.7-2.088,2.176,2.176,0,0,1,.348-1.479,2.766,2.766,0,0,1,.957-1.044,2.666,2.666,0,0,1,1.479-.348,3.531,3.531,0,0,1,1.653.348l-.174.348a2.859,2.859,0,0,0-1.479-.348,2.763,2.763,0,0,0-1.74.7,2.451,2.451,0,0,0-.609,1.827,2.326,2.326,0,0,0,.609,1.827,2.37,2.37,0,0,0,1.74.609c.7,0,.957,0,1.3-.261V60.117h-1.653v-.348Zm3.828.348v2.436h-.348V57.072h1.3a2.176,2.176,0,0,1,1.479.348,1.293,1.293,0,0,1,.522,1.131,1.4,1.4,0,0,1-.261.957,1.479,1.479,0,0,1-.87.522l1.479,2.523h-.435l-1.392-2.436h-1.392Zm0-.348h1.044a1.387,1.387,0,0,0,1.044-.348,1.009,1.009,0,0,0,.348-.87,1.824,1.824,0,0,0-.348-.957,2.3,2.3,0,0,0-1.218-.261h-.87Zm6.873.783h-2.262l-.783,1.914h-.435l2.175-5.568h.261l2.175,5.568h-.435l-.783-1.914Zm-2.088-.348h2l-.783-2c0-.174-.174-.348-.261-.7,0,.261-.174.435-.261.7l-.783,2Zm7.4-1.653a1.46,1.46,0,0,1-.522,1.218,2.583,2.583,0,0,1-1.566.435h-.87v2.262h-.348V56.985h1.392c1.3,0,2,.522,2,1.566h-.087ZM213.5,59.856h.783a2.445,2.445,0,0,0,1.3-.261,1.186,1.186,0,0,0,.435-1.044,1.123,1.123,0,0,0-.435-.957,2.3,2.3,0,0,0-1.218-.261h-.87Zm8.178,2.61h-.348v-2.7h-3.219v2.7h-.348V56.985h.348v2.436h3.219V56.985h.348Zm2.871-2.523L226.2,56.9h.435l-1.827,3.393v2.175h-.348V60.378l-1.827-3.393h.435l1.653,3.045Z" fill="#333"/>
          <path id="Path_43" data-name="Path 43" d="M102.834,50.721h1.044V40.89h-.783a1.622,1.622,0,0,1-1.653,1.305v.87a2.629,2.629,0,0,0,1.392-.435v8.091Zm4.959-9.918c-1.479,0-2.262.957-2.262,2.523v1.479c0,1.392.522,2.349,1.827,2.349s1.305-.348,1.566-1.044v2.175c0,1.044-.348,1.566-1.218,1.566s-1.218-.522-1.218-1.392V48.2h-1.044v.174c0,1.479.7,2.436,2.262,2.436s2.262-.957,2.262-2.523V43.239a2.223,2.223,0,0,0-2.262-2.523h0Zm0,1.044c.783,0,1.218.522,1.218,1.392v1.479c0,.87-.348,1.392-1.218,1.392s-1.131-.522-1.131-1.392V43.239c0-.87.348-1.392,1.131-1.392Zm11.4,9.222h1.044l2.523-8.874v-.957H118.32V42.2h3.306L119.1,51.069ZM114.231,40.8a2.139,2.139,0,0,0-2.349,2.436v.348a1.9,1.9,0,0,0,1.131,2,2.026,2.026,0,0,0-1.131,2.088v.7a2.351,2.351,0,1,0,4.7,0v-.7a2.1,2.1,0,0,0-1.131-2.088,1.9,1.9,0,0,0,1.131-2v-.348a2.139,2.139,0,0,0-2.349-2.436Zm0,.957c.783,0,1.218.435,1.218,1.479v.435c0,.957-.435,1.392-1.218,1.392s-1.218-.435-1.218-1.392v-.435c0-1.044.435-1.479,1.218-1.479Zm0,4.35c.783,0,1.218.435,1.218,1.392v.783c0,1.044-.435,1.479-1.218,1.479s-1.218-.435-1.218-1.479V47.5c0-.957.435-1.392,1.218-1.392Z" fill="#333"/>
          <path id="Path_44" data-name="Path 44" d="M10.788,45.588V42.456h2.784V41.5H9.744v9.309h3.828v-.957H10.788V46.545H13.05v-.957H10.788Zm5.742-4.176c-1.392,0-2.088.87-2.088,2.349,0,2.61,3.132,2.784,3.132,4.872s-.348,1.3-1.044,1.3a1.15,1.15,0,0,1-1.131-1.3v-.609h-.957v.522c0,1.392.7,2.262,2.088,2.262s2.088-.87,2.088-2.262c0-2.61-3.132-2.784-3.132-4.872s.348-1.305,1.044-1.305,1.044.522,1.044,1.305v.348h.957v-.261c0-1.392-.609-2.349-2-2.349h0Zm5.394,9.4V42.456h1.74V41.5H19.227v.957h1.74v8.352h.957ZM24.447,41.5v9.309h2.088c1.479,0,2.088-.783,2.088-2.175V47.85c0-1.044-.348-1.74-1.218-2,.783-.261,1.044-.87,1.044-1.827v-.435c0-1.392-.522-2.088-2-2.088H24.36Zm1.044,3.915V42.369h1.044c.783,0,1.044.435,1.044,1.218v.522c0,.957-.435,1.218-1.218,1.218h-.783Zm0,4.35v-3.48h.957c.87,0,1.305.348,1.305,1.392v.783c0,.87-.348,1.218-1.131,1.218H25.491Z" fill="#333"/>
          <path id="Path_45" data-name="Path 45" d="M146.073,59.421h14.442l-14.442.522Z" fill="#333" fill-rule="evenodd"/>
          <path id="Path_46" data-name="Path 46" d="M249.777,60.2H235.422l14.355.609Z" fill="#333" fill-rule="evenodd"/>
          <g id="Group_16" data-name="Group 16">
            <path id="Path_47" data-name="Path 47" d="M142.854,53.505a15.434,15.434,0,0,0,4.785-.7,8.229,8.229,0,0,0,3.219-1.827,6.644,6.644,0,0,0,1.827-2.436,5.3,5.3,0,0,0,.609-2.436,4.215,4.215,0,0,0-.609-2.262,5.767,5.767,0,0,0-1.74-1.827,12,12,0,0,0-2.61-1.218,13.208,13.208,0,0,0-3.306-.435,10.832,10.832,0,0,0-3.48.522,6.079,6.079,0,0,0-2,1.218,2.131,2.131,0,0,0-.7,1.392,1.519,1.519,0,0,0,.348,1.044,2.209,2.209,0,0,0,1.131.783,6.49,6.49,0,0,0,2.088.348,9.8,9.8,0,0,0,2.784-.435,8.009,8.009,0,0,0,2.088-1.131,3.724,3.724,0,0,0,1.305-1.566,3.9,3.9,0,0,0,.435-1.653,2.827,2.827,0,0,0-.609-1.74,4.123,4.123,0,0,0-1.827-1.305,8.6,8.6,0,0,0-3.219-.522,11.387,11.387,0,0,0-3.567.522,8.961,8.961,0,0,0-2.7,1.479,7.376,7.376,0,0,0-1.74,2,4.428,4.428,0,0,0-.609,2.262,4.563,4.563,0,0,0,.957,2.871,4.92,4.92,0,0,0,2.61,1.566,17.2,17.2,0,0,0,4,.522,9.89,9.89,0,0,0,3.741-.7,14.169,14.169,0,0,0,3.306-1.914,21.276,21.276,0,0,0,2.958-2.7c.957-.957,1.827-2,2.7-3.045s1.653-2.088,2.436-3.045,1.566-1.827,2.262-2.61c.522-.522,1.044-1.044,1.479-1.392a13.276,13.276,0,0,1,1.392-.957h1.131a4.649,4.649,0,0,0-1.218.522,12.184,12.184,0,0,0-1.392.87,15.146,15.146,0,0,0-1.218,1.044,22.145,22.145,0,0,0-2.088,2.7c-.609.957-1.218,2-1.827,3.045a35.964,35.964,0,0,1-1.914,3.045,16.247,16.247,0,0,1-2.262,2.61,13.008,13.008,0,0,1-4.176,2.61,13.531,13.531,0,0,1-4.959.87,10.955,10.955,0,0,1-4.437-.783,6.126,6.126,0,0,1-2.7-2.175,5.3,5.3,0,0,1-.87-3.132,3.609,3.609,0,0,1,.609-2.349,7.953,7.953,0,0,1,1.74-2.088,8.471,8.471,0,0,1,2.784-1.479,11.567,11.567,0,0,1,3.654-.522,8.468,8.468,0,0,1,3.306.522,5.453,5.453,0,0,1,1.914,1.392,2.965,2.965,0,0,1,.609,1.914,3.96,3.96,0,0,1-.435,1.74,5.7,5.7,0,0,1-1.3,1.566,7.454,7.454,0,0,1-2.175,1.218,9.934,9.934,0,0,1-2.871.435,5.361,5.361,0,0,1-2.262-.348,3.377,3.377,0,0,1-1.218-.87,1.749,1.749,0,0,1-.348-1.131,2.53,2.53,0,0,1,.7-1.479,4.791,4.791,0,0,1,2.088-1.305,10.646,10.646,0,0,1,3.567-.522,12.864,12.864,0,0,1,3.393.435,8.51,8.51,0,0,1,2.7,1.218,6.09,6.09,0,0,1,1.827,1.827,4.309,4.309,0,0,1,.609,2.349,5.385,5.385,0,0,1-.609,2.523,8.433,8.433,0,0,1-1.914,2.523,11.018,11.018,0,0,1-3.306,1.914,13.419,13.419,0,0,1-4.872.7,14.827,14.827,0,0,1-4.959-.783,15.272,15.272,0,0,1-4.089-2.175,12.172,12.172,0,0,1-2.784-3.219,7.682,7.682,0,0,1-.957-3.915,8.673,8.673,0,0,1,.957-3.915,9.815,9.815,0,0,1,2.784-3.219,12.254,12.254,0,0,1,4.089-2.175,15.579,15.579,0,0,1,4.959-.783,7.909,7.909,0,0,1,2.436.174,19.934,19.934,0,0,1,2.436.609,5.013,5.013,0,0,1,2,1.131,3.725,3.725,0,0,1,1.305,1.566h-.261a4.116,4.116,0,0,0-1.305-1.479,7.272,7.272,0,0,0-2-1.044,18.521,18.521,0,0,0-2.349-.609,11.088,11.088,0,0,0-2.436-.174,15.047,15.047,0,0,0-4.872.783,12.711,12.711,0,0,0-4,2.175,10.455,10.455,0,0,0-2.7,3.219,8.673,8.673,0,0,0-.957,3.915,8.053,8.053,0,0,0,.957,3.828,11.566,11.566,0,0,0,2.7,3.219,14.086,14.086,0,0,0,8.874,2.958Zm2.871-20.01h-.261a3.693,3.693,0,0,1,1.653-1.305,6.778,6.778,0,0,1,2.7-.522,5.5,5.5,0,0,1,2.262.435,2.822,2.822,0,0,1,1.3,1.131,2.933,2.933,0,0,1,.435,1.479,4.535,4.535,0,0,1-.7,2.088,4.687,4.687,0,0,1-2.088,1.74,7.72,7.72,0,0,1-3.306.7,10.382,10.382,0,0,1-4.089-.783,5.713,5.713,0,0,1-2.436-2,4.6,4.6,0,0,1-.783-2.61,4.309,4.309,0,0,1,.609-2.349,5.6,5.6,0,0,1,1.74-2.088,8.939,8.939,0,0,1,2.871-1.479,13.535,13.535,0,0,1,4-.522,9.592,9.592,0,0,1,3.393.522,16.9,16.9,0,0,1,3.132,1.305c1.044.522,1.914,1.044,2.784,1.479q1.305.783,2.349,1.3a3.912,3.912,0,0,0,1.653.522V32.8a4.22,4.22,0,0,1-1.74-.522c-.7-.348-1.479-.783-2.262-1.218s-1.74-.957-2.784-1.479a19.469,19.469,0,0,0-3.132-1.218,10.517,10.517,0,0,0-3.306-.522,16.661,16.661,0,0,0-3.567.435,10.983,10.983,0,0,0-2.871,1.305,6,6,0,0,0-1.914,2,4.921,4.921,0,0,0-.7,2.436,4.526,4.526,0,0,0,.87,2.7,6.117,6.117,0,0,0,2.523,1.827,9.931,9.931,0,0,0,3.741.609,5.76,5.76,0,0,0,2.958-.609,4.75,4.75,0,0,0,2.088-1.566,3.341,3.341,0,0,0,.783-2.175,2.6,2.6,0,0,0-1.044-2.088,4.318,4.318,0,0,0-2.7-.783,6.914,6.914,0,0,0-2.523.435,3.075,3.075,0,0,0-1.653,1.218Zm6.264,8.787.174-.261h9.918v.261H152.076Zm22.968-10.353V32.1h-.609a11.133,11.133,0,0,0-5.307,1.74,30.489,30.489,0,0,0-6.177,5.133,43.9,43.9,0,0,0-3.306,3.915,19.29,19.29,0,0,0-2.175,3.828,8.218,8.218,0,0,0-.783,3.132,3.315,3.315,0,0,0,.435,1.827,1.622,1.622,0,0,0,1.392.609,2.1,2.1,0,0,0,1.566-.609v.174a2.1,2.1,0,0,1-1.566.609,2.653,2.653,0,0,1-1.827-.783,2.774,2.774,0,0,1-.7-2.088,4.428,4.428,0,0,1,.609-2.262,16.471,16.471,0,0,1,1.566-2.958,26.118,26.118,0,0,1,2.436-3.219,35.185,35.185,0,0,1,3.045-3.219,30.9,30.9,0,0,1,5.742-4.524,10.2,10.2,0,0,1,4.959-1.566h.609Z" fill="#fff"/>
            <path id="Path_48" data-name="Path 48" d="M173.913,53.505a15.434,15.434,0,0,0,4.785-.7,8.229,8.229,0,0,0,3.219-1.827,6.644,6.644,0,0,0,1.827-2.436,5.3,5.3,0,0,0,.609-2.436,4.215,4.215,0,0,0-.609-2.262A5.767,5.767,0,0,0,182,42.021a12,12,0,0,0-2.61-1.218,13.208,13.208,0,0,0-3.306-.435,10.832,10.832,0,0,0-3.48.522,6.078,6.078,0,0,0-2,1.218,2.131,2.131,0,0,0-.7,1.392,1.519,1.519,0,0,0,.348,1.044,2.209,2.209,0,0,0,1.131.783,6.49,6.49,0,0,0,2.088.348,9.8,9.8,0,0,0,2.784-.435,8.009,8.009,0,0,0,2.088-1.131,3.725,3.725,0,0,0,1.3-1.566,3.9,3.9,0,0,0,.435-1.653,2.827,2.827,0,0,0-.609-1.74,4.123,4.123,0,0,0-1.827-1.305,8.6,8.6,0,0,0-3.219-.522,11.388,11.388,0,0,0-3.567.522,8.961,8.961,0,0,0-2.7,1.479,7.376,7.376,0,0,0-1.74,2,4.428,4.428,0,0,0-.609,2.262,4.563,4.563,0,0,0,.957,2.871,4.92,4.92,0,0,0,2.61,1.566,17.2,17.2,0,0,0,4,.522,9.89,9.89,0,0,0,3.741-.7,14.169,14.169,0,0,0,3.306-1.914,21.278,21.278,0,0,0,2.958-2.7c.957-.957,1.827-2,2.7-3.045s1.653-2.088,2.436-3.045,1.566-1.827,2.262-2.61c.522-.522,1.044-1.044,1.479-1.392a13.274,13.274,0,0,1,1.392-.957h1.131a4.649,4.649,0,0,0-1.218.522,12.183,12.183,0,0,0-1.392.87,15.146,15.146,0,0,0-1.218,1.044,22.146,22.146,0,0,0-2.088,2.7c-.609.957-1.218,2-1.827,3.045a35.964,35.964,0,0,1-1.914,3.045,16.246,16.246,0,0,1-2.262,2.61,13.008,13.008,0,0,1-4.176,2.61,13.531,13.531,0,0,1-4.959.87,10.956,10.956,0,0,1-4.437-.783,6.126,6.126,0,0,1-2.7-2.175,5.3,5.3,0,0,1-.87-3.132,3.609,3.609,0,0,1,.609-2.349,7.953,7.953,0,0,1,1.74-2.088,8.471,8.471,0,0,1,2.784-1.479,11.568,11.568,0,0,1,3.654-.522,8.468,8.468,0,0,1,3.306.522,5.453,5.453,0,0,1,1.914,1.392,2.965,2.965,0,0,1,.609,1.914,3.96,3.96,0,0,1-.435,1.74,5.7,5.7,0,0,1-1.3,1.566,7.454,7.454,0,0,1-2.175,1.218,9.934,9.934,0,0,1-2.871.435,5.362,5.362,0,0,1-2.262-.348,3.376,3.376,0,0,1-1.218-.87,1.749,1.749,0,0,1-.348-1.131,2.53,2.53,0,0,1,.7-1.479,4.791,4.791,0,0,1,2.088-1.305,10.646,10.646,0,0,1,3.567-.522,12.864,12.864,0,0,1,3.393.435,8.51,8.51,0,0,1,2.7,1.218A6.09,6.09,0,0,1,184,43.587a4.309,4.309,0,0,1,.609,2.349A5.385,5.385,0,0,1,184,48.459a8.433,8.433,0,0,1-1.914,2.523,11.018,11.018,0,0,1-3.306,1.914,13.419,13.419,0,0,1-4.872.7,14.827,14.827,0,0,1-4.959-.783,15.272,15.272,0,0,1-4.089-2.175,12.172,12.172,0,0,1-2.784-3.219,7.682,7.682,0,0,1-.957-3.915,8.673,8.673,0,0,1,.957-3.915,9.814,9.814,0,0,1,2.784-3.219,12.254,12.254,0,0,1,4.089-2.175,15.579,15.579,0,0,1,4.959-.783,7.909,7.909,0,0,1,2.436.174,19.935,19.935,0,0,1,2.436.609,5.013,5.013,0,0,1,2,1.131,3.725,3.725,0,0,1,1.3,1.566h-.261a4.116,4.116,0,0,0-1.3-1.479,7.273,7.273,0,0,0-2-1.044,18.522,18.522,0,0,0-2.349-.609,11.088,11.088,0,0,0-2.436-.174,15.047,15.047,0,0,0-4.872.783,12.711,12.711,0,0,0-4,2.175,10.455,10.455,0,0,0-2.7,3.219,8.673,8.673,0,0,0-.957,3.915,8.054,8.054,0,0,0,.957,3.828,11.566,11.566,0,0,0,2.7,3.219,14.085,14.085,0,0,0,8.874,2.958Zm2.871-20.01h-.261a3.693,3.693,0,0,1,1.653-1.305,6.778,6.778,0,0,1,2.7-.522,5.5,5.5,0,0,1,2.262.435,2.822,2.822,0,0,1,1.305,1.131,2.933,2.933,0,0,1,.435,1.479,4.535,4.535,0,0,1-.7,2.088,4.687,4.687,0,0,1-2.088,1.74,7.72,7.72,0,0,1-3.306.7,10.382,10.382,0,0,1-4.089-.783,5.714,5.714,0,0,1-2.436-2,4.6,4.6,0,0,1-.783-2.61,4.309,4.309,0,0,1,.609-2.349,5.6,5.6,0,0,1,1.74-2.088,8.939,8.939,0,0,1,2.871-1.479,13.535,13.535,0,0,1,4-.522,9.592,9.592,0,0,1,3.393.522,16.9,16.9,0,0,1,3.132,1.305c1.044.522,1.914,1.044,2.784,1.479q1.3.783,2.349,1.3a3.912,3.912,0,0,0,1.653.522V32.8a4.22,4.22,0,0,1-1.74-.522c-.7-.348-1.479-.783-2.262-1.218s-1.74-.957-2.784-1.479a19.469,19.469,0,0,0-3.132-1.218,10.517,10.517,0,0,0-3.306-.522,16.662,16.662,0,0,0-3.567.435,10.983,10.983,0,0,0-2.871,1.305,6,6,0,0,0-1.914,2,4.921,4.921,0,0,0-.7,2.436,4.526,4.526,0,0,0,.87,2.7,6.116,6.116,0,0,0,2.523,1.827,9.931,9.931,0,0,0,3.741.609,5.76,5.76,0,0,0,2.958-.609,4.75,4.75,0,0,0,2.088-1.566A3.341,3.341,0,0,0,184.7,34.8a2.6,2.6,0,0,0-1.044-2.088,4.318,4.318,0,0,0-2.7-.783,6.914,6.914,0,0,0-2.523.435,3.075,3.075,0,0,0-1.653,1.218Zm6.264,8.787.174-.261h9.918v.261h-10Zm22.968-10.353V32.1h-.609a11.133,11.133,0,0,0-5.307,1.74,30.488,30.488,0,0,0-6.177,5.133,43.9,43.9,0,0,0-3.306,3.915,19.29,19.29,0,0,0-2.175,3.828,8.217,8.217,0,0,0-.783,3.132,3.315,3.315,0,0,0,.435,1.827,1.622,1.622,0,0,0,1.392.609,2.1,2.1,0,0,0,1.566-.609v.174a2.1,2.1,0,0,1-1.566.609,2.653,2.653,0,0,1-1.827-.783,2.774,2.774,0,0,1-.7-2.088,4.428,4.428,0,0,1,.609-2.262,16.471,16.471,0,0,1,1.566-2.958,26.115,26.115,0,0,1,2.436-3.219,35.181,35.181,0,0,1,3.045-3.219,30.9,30.9,0,0,1,5.742-4.524,10.2,10.2,0,0,1,4.959-1.566h.609Z" fill="#fff"/>
          </g>
        </g>
      </g>
    </g>
    <g id="Group_15" data-name="Group 15" transform="translate(130.21 27.348)">
      <path id="Path_31" data-name="Path 31" d="M162.3,57.529a15.451,15.451,0,0,0,4.79-.7A8.238,8.238,0,0,0,170.316,55a6.651,6.651,0,0,0,1.829-2.439,5.307,5.307,0,0,0,.61-2.439,4.22,4.22,0,0,0-.61-2.265,5.774,5.774,0,0,0-1.742-1.829,12.008,12.008,0,0,0-2.613-1.219,13.222,13.222,0,0,0-3.31-.435A10.844,10.844,0,0,0,161,44.9a6.085,6.085,0,0,0-2,1.219,2.133,2.133,0,0,0-.7,1.394,1.521,1.521,0,0,0,.348,1.045,2.212,2.212,0,0,0,1.132.784,6.5,6.5,0,0,0,2.09.348,9.816,9.816,0,0,0,2.787-.435,8.018,8.018,0,0,0,2.09-1.132,3.729,3.729,0,0,0,1.306-1.568,3.907,3.907,0,0,0,.435-1.655,2.83,2.83,0,0,0-.61-1.742,4.127,4.127,0,0,0-1.829-1.306,8.6,8.6,0,0,0-3.223-.523,11.4,11.4,0,0,0-3.571.523,8.971,8.971,0,0,0-2.7,1.481,7.385,7.385,0,0,0-1.742,2,4.433,4.433,0,0,0-.61,2.265,4.568,4.568,0,0,0,.958,2.874,4.925,4.925,0,0,0,2.613,1.568,17.218,17.218,0,0,0,4.006.523,9.9,9.9,0,0,0,3.745-.7,14.185,14.185,0,0,0,3.31-1.916,21.3,21.3,0,0,0,2.961-2.7c.958-.958,1.829-2,2.7-3.048s1.655-2.09,2.439-3.048,1.568-1.829,2.265-2.613c.523-.523,1.045-1.045,1.481-1.394a13.289,13.289,0,0,1,1.394-.958h1.132a4.654,4.654,0,0,0-1.219.523,12.2,12.2,0,0,0-1.394.871,15.158,15.158,0,0,0-1.219,1.045,22.17,22.17,0,0,0-2.09,2.7c-.61.958-1.219,2-1.829,3.048a36.005,36.005,0,0,1-1.916,3.048,16.264,16.264,0,0,1-2.265,2.613,13.023,13.023,0,0,1-4.181,2.613,13.546,13.546,0,0,1-4.965.871,10.968,10.968,0,0,1-4.442-.784,6.133,6.133,0,0,1-2.7-2.177,5.306,5.306,0,0,1-.871-3.135,3.613,3.613,0,0,1,.61-2.352,7.962,7.962,0,0,1,1.742-2.09,8.48,8.48,0,0,1,2.787-1.481,11.58,11.58,0,0,1,3.658-.523,8.477,8.477,0,0,1,3.31.523,5.459,5.459,0,0,1,1.916,1.394,2.968,2.968,0,0,1,.61,1.916,3.964,3.964,0,0,1-.435,1.742,5.7,5.7,0,0,1-1.306,1.568,8.426,8.426,0,0,1-2.177,1.219,9.945,9.945,0,0,1-2.874.435,5.367,5.367,0,0,1-2.264-.348,3.38,3.38,0,0,1-1.219-.871,1.751,1.751,0,0,1-.348-1.132,2.533,2.533,0,0,1,.7-1.481,4.8,4.8,0,0,1,2.09-1.306,10.658,10.658,0,0,1,3.571-.523,12.879,12.879,0,0,1,3.4.435,8.519,8.519,0,0,1,2.7,1.219,6.1,6.1,0,0,1,1.829,1.829,4.314,4.314,0,0,1,.61,2.352,5.391,5.391,0,0,1-.61,2.526A8.443,8.443,0,0,1,170.49,55a11.03,11.03,0,0,1-3.31,1.916,13.434,13.434,0,0,1-4.877.7,14.844,14.844,0,0,1-4.965-.784,15.289,15.289,0,0,1-4.094-2.177,12.185,12.185,0,0,1-2.787-3.223,7.69,7.69,0,0,1-.958-3.919,8.683,8.683,0,0,1,.958-3.919,9.825,9.825,0,0,1,2.787-3.223,12.267,12.267,0,0,1,4.094-2.177,15.6,15.6,0,0,1,4.965-.784,7.918,7.918,0,0,1,2.439.174,19.955,19.955,0,0,1,2.439.61,5.019,5.019,0,0,1,2,1.132,3.729,3.729,0,0,1,1.306,1.568h-.261a4.12,4.12,0,0,0-1.306-1.481,7.281,7.281,0,0,0-2-1.045,18.543,18.543,0,0,0-2.352-.61,11.1,11.1,0,0,0-2.439-.174,15.064,15.064,0,0,0-4.877.784,12.725,12.725,0,0,0-4.006,2.177,10.467,10.467,0,0,0-2.7,3.223,8.683,8.683,0,0,0-.958,3.919,8.063,8.063,0,0,0,.958,3.832,11.579,11.579,0,0,0,2.7,3.223,14.1,14.1,0,0,0,8.884,2.961ZM165.177,37.5h-.261a3.7,3.7,0,0,1,1.655-1.306,6.785,6.785,0,0,1,2.7-.523,5.51,5.51,0,0,1,2.265.435,2.825,2.825,0,0,1,1.306,1.132,2.936,2.936,0,0,1,.435,1.481,4.541,4.541,0,0,1-.7,2.09,4.693,4.693,0,0,1-2.09,1.742,7.728,7.728,0,0,1-3.31.7,10.393,10.393,0,0,1-4.094-.784,5.72,5.72,0,0,1-2.439-2,4.608,4.608,0,0,1-.784-2.613,4.314,4.314,0,0,1,.61-2.352,5.608,5.608,0,0,1,1.742-2.09,8.949,8.949,0,0,1,2.874-1.481A13.55,13.55,0,0,1,169.1,31.4a9.6,9.6,0,0,1,3.4.523,16.92,16.92,0,0,1,3.135,1.306c1.045.523,1.916,1.045,2.787,1.481q1.306.784,2.352,1.306a3.916,3.916,0,0,0,1.655.523V36.8a4.225,4.225,0,0,1-1.742-.523c-.7-.348-1.481-.784-2.264-1.219s-1.742-.958-2.787-1.481a19.491,19.491,0,0,0-3.135-1.219,10.528,10.528,0,0,0-3.31-.523,16.68,16.68,0,0,0-3.571.435,11,11,0,0,0-2.874,1.306,6,6,0,0,0-1.916,2,4.927,4.927,0,0,0-.7,2.439,4.531,4.531,0,0,0,.871,2.7,6.123,6.123,0,0,0,2.526,1.829,9.942,9.942,0,0,0,3.745.61,5.767,5.767,0,0,0,2.961-.61,4.756,4.756,0,0,0,2.09-1.568A3.345,3.345,0,0,0,173.1,38.8a2.6,2.6,0,0,0-1.045-2.09,4.323,4.323,0,0,0-2.7-.784,6.922,6.922,0,0,0-2.526.435,3.079,3.079,0,0,0-1.655,1.219Zm6.271,8.8.174-.261h9.929v.261H171.535Zm22.994-10.365V36.1h-.61a11.146,11.146,0,0,0-5.313,1.742,30.522,30.522,0,0,0-6.184,5.139,43.951,43.951,0,0,0-3.31,3.919,19.312,19.312,0,0,0-2.177,3.832,8.227,8.227,0,0,0-.784,3.135A3.318,3.318,0,0,0,176.5,55.7a1.624,1.624,0,0,0,1.394.61,2.1,2.1,0,0,0,1.568-.61v.174a2.1,2.1,0,0,1-1.568.61,2.656,2.656,0,0,1-1.829-.784,2.777,2.777,0,0,1-.7-2.09,4.433,4.433,0,0,1,.61-2.265,16.49,16.49,0,0,1,1.568-2.961,26.146,26.146,0,0,1,2.439-3.223,35.221,35.221,0,0,1,3.048-3.223,30.935,30.935,0,0,1,5.748-4.529,10.214,10.214,0,0,1,4.965-1.568h.61Z" transform="translate(-149.5 -31.4)" fill="#fff"/>
      <path id="Path_32" data-name="Path 32" d="M198,57.529a15.451,15.451,0,0,0,4.79-.7A8.239,8.239,0,0,0,206.016,55a6.651,6.651,0,0,0,1.829-2.439,5.307,5.307,0,0,0,.61-2.439,4.22,4.22,0,0,0-.61-2.265,5.774,5.774,0,0,0-1.742-1.829,12.008,12.008,0,0,0-2.613-1.219,13.223,13.223,0,0,0-3.31-.435,10.844,10.844,0,0,0-3.484.523,6.085,6.085,0,0,0-2,1.219,2.133,2.133,0,0,0-.7,1.394,1.521,1.521,0,0,0,.348,1.045,2.212,2.212,0,0,0,1.132.784,6.5,6.5,0,0,0,2.09.348,9.816,9.816,0,0,0,2.787-.435,8.018,8.018,0,0,0,2.09-1.132,3.729,3.729,0,0,0,1.306-1.568,3.907,3.907,0,0,0,.435-1.655,2.83,2.83,0,0,0-.61-1.742,4.127,4.127,0,0,0-1.829-1.306,8.6,8.6,0,0,0-3.223-.523,11.4,11.4,0,0,0-3.571.523,8.971,8.971,0,0,0-2.7,1.481,7.384,7.384,0,0,0-1.742,2,4.433,4.433,0,0,0-.61,2.265,4.568,4.568,0,0,0,.958,2.874,4.925,4.925,0,0,0,2.613,1.568,17.218,17.218,0,0,0,4.006.523,9.9,9.9,0,0,0,3.745-.7,14.184,14.184,0,0,0,3.31-1.916,21.3,21.3,0,0,0,2.961-2.7c.958-.958,1.829-2,2.7-3.048s1.655-2.09,2.439-3.048,1.568-1.829,2.265-2.613c.523-.523,1.045-1.045,1.481-1.394a13.289,13.289,0,0,1,1.394-.958h1.132a4.654,4.654,0,0,0-1.219.523,12.2,12.2,0,0,0-1.394.871,15.164,15.164,0,0,0-1.219,1.045,22.17,22.17,0,0,0-2.09,2.7c-.61.958-1.219,2-1.829,3.048a36.005,36.005,0,0,1-1.916,3.048,16.264,16.264,0,0,1-2.265,2.613,13.023,13.023,0,0,1-4.181,2.613,13.546,13.546,0,0,1-4.965.871,10.968,10.968,0,0,1-4.442-.784,6.132,6.132,0,0,1-2.7-2.177,5.306,5.306,0,0,1-.871-3.135,3.613,3.613,0,0,1,.61-2.352,7.962,7.962,0,0,1,1.742-2.09,8.48,8.48,0,0,1,2.787-1.481,11.58,11.58,0,0,1,3.658-.523,8.477,8.477,0,0,1,3.31.523,5.459,5.459,0,0,1,1.916,1.394,2.968,2.968,0,0,1,.61,1.916,3.965,3.965,0,0,1-.435,1.742,5.7,5.7,0,0,1-1.306,1.568,8.427,8.427,0,0,1-2.177,1.219,9.945,9.945,0,0,1-2.874.435,5.367,5.367,0,0,1-2.265-.348,3.38,3.38,0,0,1-1.219-.871,1.751,1.751,0,0,1-.348-1.132,2.533,2.533,0,0,1,.7-1.481,4.8,4.8,0,0,1,2.09-1.306,10.658,10.658,0,0,1,3.571-.523,12.879,12.879,0,0,1,3.4.435,8.519,8.519,0,0,1,2.7,1.219,6.1,6.1,0,0,1,1.829,1.829,4.314,4.314,0,0,1,.61,2.352,5.391,5.391,0,0,1-.61,2.526A8.442,8.442,0,0,1,206.19,55a11.03,11.03,0,0,1-3.31,1.916,13.434,13.434,0,0,1-4.877.7,14.843,14.843,0,0,1-4.965-.784,15.289,15.289,0,0,1-4.094-2.177,12.185,12.185,0,0,1-2.787-3.223,7.69,7.69,0,0,1-.958-3.919,8.683,8.683,0,0,1,.958-3.919,9.825,9.825,0,0,1,2.787-3.223,12.267,12.267,0,0,1,4.094-2.177A15.6,15.6,0,0,1,198,37.41a7.918,7.918,0,0,1,2.439.174,19.956,19.956,0,0,1,2.439.61,5.019,5.019,0,0,1,2,1.132,3.729,3.729,0,0,1,1.306,1.568h-.261a4.12,4.12,0,0,0-1.306-1.481,7.281,7.281,0,0,0-2-1.045,18.542,18.542,0,0,0-2.352-.61,11.1,11.1,0,0,0-2.439-.174,15.063,15.063,0,0,0-4.877.784,12.725,12.725,0,0,0-4.006,2.177,10.467,10.467,0,0,0-2.7,3.223,8.683,8.683,0,0,0-.958,3.919,8.062,8.062,0,0,0,.958,3.832,11.579,11.579,0,0,0,2.7,3.223,14.1,14.1,0,0,0,8.884,2.961ZM200.877,37.5h-.261a3.7,3.7,0,0,1,1.655-1.306,6.785,6.785,0,0,1,2.7-.523,5.51,5.51,0,0,1,2.265.435,2.825,2.825,0,0,1,1.306,1.132,2.936,2.936,0,0,1,.435,1.481,4.54,4.54,0,0,1-.7,2.09,4.693,4.693,0,0,1-2.09,1.742,7.728,7.728,0,0,1-3.31.7,10.393,10.393,0,0,1-4.094-.784,5.72,5.72,0,0,1-2.439-2,4.608,4.608,0,0,1-.784-2.613,4.314,4.314,0,0,1,.61-2.352,5.608,5.608,0,0,1,1.742-2.09,8.949,8.949,0,0,1,2.874-1.481A13.55,13.55,0,0,1,204.8,31.4a9.6,9.6,0,0,1,3.4.523,16.919,16.919,0,0,1,3.135,1.306c1.045.523,1.916,1.045,2.787,1.481q1.306.784,2.352,1.306a3.917,3.917,0,0,0,1.655.523V36.8a4.225,4.225,0,0,1-1.742-.523c-.7-.348-1.481-.784-2.265-1.219s-1.742-.958-2.787-1.481a19.491,19.491,0,0,0-3.135-1.219,10.529,10.529,0,0,0-3.31-.523,16.68,16.68,0,0,0-3.571.435,11,11,0,0,0-2.874,1.306,6,6,0,0,0-1.916,2,4.927,4.927,0,0,0-.7,2.439,4.531,4.531,0,0,0,.871,2.7,6.123,6.123,0,0,0,2.526,1.829,9.942,9.942,0,0,0,3.745.61,5.767,5.767,0,0,0,2.961-.61,4.755,4.755,0,0,0,2.09-1.568A3.345,3.345,0,0,0,208.8,38.8a2.6,2.6,0,0,0-1.045-2.09,4.323,4.323,0,0,0-2.7-.784,6.922,6.922,0,0,0-2.526.435,3.078,3.078,0,0,0-1.655,1.219Zm6.271,8.8.174-.261h9.929v.261H207.235Zm22.994-10.365V36.1h-.61a11.146,11.146,0,0,0-5.313,1.742,30.523,30.523,0,0,0-6.184,5.139,43.953,43.953,0,0,0-3.31,3.919,19.312,19.312,0,0,0-2.177,3.832,8.227,8.227,0,0,0-.784,3.135A3.318,3.318,0,0,0,212.2,55.7a1.624,1.624,0,0,0,1.394.61,2.1,2.1,0,0,0,1.568-.61v.174a2.1,2.1,0,0,1-1.568.61,2.656,2.656,0,0,1-1.829-.784,2.777,2.777,0,0,1-.7-2.09,4.433,4.433,0,0,1,.61-2.265,16.49,16.49,0,0,1,1.568-2.961,26.146,26.146,0,0,1,2.439-3.223,35.221,35.221,0,0,1,3.048-3.223,30.936,30.936,0,0,1,5.748-4.529,10.214,10.214,0,0,1,4.965-1.568h.61Z" transform="translate(-154.106 -31.4)" fill="#fff"/>
    </g>
  </g>
  <g id="b" transform="translate(9.755 17.584)">
    <path id="Path_33" data-name="Path 33" d="M43.058,26.658A3.992,3.992,0,0,0,39.4,30.665v1.655h9.929v29H39.4v1.655a4.071,4.071,0,0,0,4.006,4.094H99.932a4.089,4.089,0,0,0,4.094-4.094V30.752a4.067,4.067,0,0,0-3.745-4.006H98.626l-.871-4.355a2.51,2.51,0,0,0-2.439-2.09H79.9a2.6,2.6,0,0,0-2.526,2.09L76.5,26.745H43.058Zm-3.658,8.1V58.971h7.49V34.758H39.4Zm37.8,5.835a7.549,7.549,0,0,0-4.355-1.306A7.992,7.992,0,0,0,64.832,47.3c0,4.442,2.177,6.445,5.313,7.49A8,8,0,0,1,74.5,40.071c4.442,0,1.829.174,2.7.523h0Zm-5.487-8.448a13.583,13.583,0,0,1,5.574,1.132h0a14.976,14.976,0,0,1,4.79,3.223h0A14.976,14.976,0,0,1,85.3,41.29h0a15.165,15.165,0,0,1,1.132,5.574A15.622,15.622,0,0,1,85.3,52.526h0a16,16,0,0,1-3.223,4.79h0a14.975,14.975,0,0,1-4.79,3.223h0a15.165,15.165,0,0,1-5.574,1.132,13.99,13.99,0,0,1-5.661-1.132h0a16,16,0,0,1-4.79-3.223h0a14.976,14.976,0,0,1-3.223-4.79h0a15.261,15.261,0,0,1-1.132-5.661,14.469,14.469,0,0,1,1.132-5.574h0a14.976,14.976,0,0,1,3.223-4.79h0a14.976,14.976,0,0,1,4.79-3.223h0a15.261,15.261,0,0,1,5.661-1.132h0Zm6.968,7.665a9.174,9.174,0,0,0-3.223-2.177,9.76,9.76,0,0,0-7.665,0,10.234,10.234,0,0,0-5.4,5.4,11.134,11.134,0,0,0-.784,3.832,9.427,9.427,0,0,0,.784,3.832,10.037,10.037,0,0,0,2.177,3.223A11.674,11.674,0,0,0,67.794,56.1a9.136,9.136,0,0,0,3.832.784,9.427,9.427,0,0,0,3.832-.784,9.6,9.6,0,0,0,3.223-2.177A10.037,10.037,0,0,0,80.858,50.7a9.113,9.113,0,0,0,.7-3.832,11.086,11.086,0,0,0-.7-3.832,11.082,11.082,0,0,0-2.177-3.223Z" transform="translate(-14.839 -20.3)" fill="#333" fill-rule="evenodd"/>
    <path id="Path_34" data-name="Path 34" d="M224.706,54.448h.435c.435,0,.7,0,.871-.261a1.075,1.075,0,0,0,.348-.7.722.722,0,0,0-.261-.7,1.065,1.065,0,0,0-.784-.261h-.61v1.829Zm2.961-.958a1.863,1.863,0,0,1-.61,1.568,2.858,2.858,0,0,1-1.829.523h-.523v2.177H223.4V51.487h2a2.6,2.6,0,0,1,1.742.523,1.689,1.689,0,0,1,.61,1.481h0Zm6.271,4.268h-1.306v-2.7h-2.439v2.7h-1.306V51.487h1.306v2.439h2.439V51.487h1.306Zm7.229-3.135a3.194,3.194,0,0,1-.784,2.352,3.416,3.416,0,0,1-4.355,0,3.919,3.919,0,0,1,0-4.7,3.416,3.416,0,0,1,4.355,0,3.194,3.194,0,0,1,.784,2.352Zm-4.529,0a2.114,2.114,0,0,0,.435,1.568,1.462,1.462,0,0,0,1.219.523q1.568,0,1.568-2.09t-1.568-2.09c-1.045,0-.958.174-1.219.523a2.586,2.586,0,0,0-.435,1.568h0Zm8.013,3.135h-1.306V52.619H241.69V51.487h4.7v1.132h-1.655v5.139Zm8.1-3.135a3.194,3.194,0,0,1-.784,2.352,3.416,3.416,0,0,1-4.355,0,3.919,3.919,0,0,1,0-4.7,3.416,3.416,0,0,1,4.355,0,3.194,3.194,0,0,1,.784,2.352Zm-4.529,0a2.586,2.586,0,0,0,.435,1.568,1.462,1.462,0,0,0,1.219.523q1.568,0,1.568-2.09t-1.568-2.09c-1.045,0-.871.174-1.219.523a2.586,2.586,0,0,0-.435,1.568h0Zm11.758,1.394a1.567,1.567,0,0,1-.61,1.306,2.511,2.511,0,0,1-1.655.523,3.668,3.668,0,0,1-1.742-.348V56.277c.435.174.784.348,1.045.435.261,0,.523.087.784.087a.938.938,0,0,0,.7-.174.527.527,0,0,0,.261-.523c0-.261,0-.261-.087-.348,0-.087-.174-.174-.261-.261-.174,0-.435-.261-.784-.435a3.808,3.808,0,0,1-.871-.523,1.562,1.562,0,0,1-.435-.61,2.543,2.543,0,0,1-.174-.784,1.773,1.773,0,0,1,.523-1.306,2.114,2.114,0,0,1,1.568-.435,2.451,2.451,0,0,1,.958.087,1.839,1.839,0,0,1,.871.348l-.435,1.045a2.005,2.005,0,0,0-.784-.261h-.61a.829.829,0,0,0-.61.174c-.174.087-.174.261-.174.435v.261l.261.261c.087,0,.435.261.871.435a2.753,2.753,0,0,1,1.219.871,1.867,1.867,0,0,1,.348,1.045h0Zm3.484,1.742h-1.306V52.619H260.5V51.487h4.7v1.132h-1.655v5.139Zm7.752-6.271v4.006a2,2,0,0,1-.348,1.219A1.906,1.906,0,0,1,270,57.5a3.317,3.317,0,0,1-1.394.261,2.454,2.454,0,0,1-1.829-.61,2.23,2.23,0,0,1-.7-1.655V51.487h1.306v3.832a1.513,1.513,0,0,0,.261,1.045,1.492,1.492,0,0,0,1.916,0,1.857,1.857,0,0,0,.261-1.045V51.487h1.394Zm6.706,3.048a2.907,2.907,0,0,1-.871,2.352,3.656,3.656,0,0,1-2.526.784h-1.742V51.4H274.7a3.194,3.194,0,0,1,2.352.784,3.154,3.154,0,0,1,.871,2.265h0Zm-1.394,0c0-1.306-.61-2-1.742-2h-.7v4.094h.61c1.306,0,1.916-.7,1.916-2.09h-.087Zm2.7,3.135V51.4h1.306v6.271Zm8.535-3.135a3.194,3.194,0,0,1-.784,2.352,3.416,3.416,0,0,1-4.355,0,3.919,3.919,0,0,1,0-4.7,3.416,3.416,0,0,1,4.355,0,3.194,3.194,0,0,1,.784,2.352Zm-4.529,0a2.114,2.114,0,0,0,.435,1.568,1.462,1.462,0,0,0,1.219.523q1.568,0,1.568-2.09t-1.568-2.09c-1.045,0-.958.174-1.219.523a2.586,2.586,0,0,0-.435,1.568h0Z" transform="translate(-38.581 -24.313)" fill="#333"/>
    <path id="Path_35" data-name="Path 35" d="M201.61,67.142a1.462,1.462,0,0,1-.523,1.219,2.586,2.586,0,0,1-1.568.435h-.871v2.265H198.3V65.574h1.306c1.306,0,2,.523,2,1.568Zm-2.961,1.306h.784a2.448,2.448,0,0,0,1.306-.261,1.188,1.188,0,0,0,.435-1.045,1.393,1.393,0,0,0-.348-.958,2.307,2.307,0,0,0-1.219-.261h-.958Zm8.187,2.613h-.348v-2.7h-3.223v2.7h-.348V65.574h.348v2.439h3.223V65.574h.348Zm6.271-2.787a3.178,3.178,0,0,1-.7,2.09,2.526,2.526,0,0,1-3.658,0,3.484,3.484,0,0,1,0-4.181,2.526,2.526,0,0,1,3.658,0,3.146,3.146,0,0,1,.61,2.09h.087Zm-4.529,0A2.858,2.858,0,0,0,209.1,70.1a1.794,1.794,0,0,0,1.481.61,1.951,1.951,0,0,0,1.481-.61,3.462,3.462,0,0,0,0-3.658,2.1,2.1,0,0,0-2.961,0,2.858,2.858,0,0,0-.523,1.829Zm7.055,2.787h-.348V65.923h-1.829v-.348h4.006v.348h-1.742v5.139Zm7.142-2.787a3.178,3.178,0,0,1-.7,2.09,2.526,2.526,0,0,1-3.658,0,3.484,3.484,0,0,1,0-4.181,2.526,2.526,0,0,1,3.658,0,3.178,3.178,0,0,1,.7,2.09Zm-4.529,0a2.858,2.858,0,0,0,.523,1.829,1.794,1.794,0,0,0,1.481.61,2.1,2.1,0,0,0,1.481-.61,3.462,3.462,0,0,0,0-3.658,2.1,2.1,0,0,0-2.961,0,2.858,2.858,0,0,0-.523,1.829Zm8.013,0h2V70.8a4.04,4.04,0,0,1-1.829.348,3.106,3.106,0,0,1-2-.7,3.178,3.178,0,0,1-.7-2.09,2.179,2.179,0,0,1,.348-1.481,2.769,2.769,0,0,1,.958-1.045,2.669,2.669,0,0,1,1.481-.348,3.535,3.535,0,0,1,1.655.348l-.174.348a2.863,2.863,0,0,0-1.481-.348,2.766,2.766,0,0,0-1.742.7,2.454,2.454,0,0,0-.61,1.829,2.329,2.329,0,0,0,.61,1.829,2.372,2.372,0,0,0,1.742.61c.7,0,.958,0,1.306-.261V68.623h-1.655v-.348Zm3.832.348v2.439h-.348V65.574h1.306a2.178,2.178,0,0,1,1.481.348,1.294,1.294,0,0,1,.523,1.132,1.4,1.4,0,0,1-.261.958,1.481,1.481,0,0,1-.871.523l1.481,2.526h-.435l-1.394-2.439h-1.394Zm0-.348h1.045a1.388,1.388,0,0,0,1.045-.348,1.01,1.01,0,0,0,.348-.871,1.826,1.826,0,0,0-.348-.958,2.307,2.307,0,0,0-1.219-.261h-.871Zm6.881.784h-2.265l-.784,1.916h-.435l2.177-5.574h.261l2.177,5.574h-.435l-.784-1.916Zm-2.09-.348h2l-.784-2c0-.174-.174-.348-.261-.7,0,.261-.174.435-.261.7l-.784,2Zm7.4-1.655a1.462,1.462,0,0,1-.523,1.219,2.586,2.586,0,0,1-1.568.435h-.871v2.265h-.348V65.487h1.394c1.306,0,2,.523,2,1.568h-.087Zm-2.961,1.306h.784a2.448,2.448,0,0,0,1.306-.261,1.188,1.188,0,0,0,.435-1.045,1.124,1.124,0,0,0-.435-.958,2.307,2.307,0,0,0-1.219-.261h-.871Zm8.187,2.613h-.348v-2.7h-3.223v2.7h-.348V65.487h.348v2.439h3.223V65.487h.348Zm2.874-2.526,1.655-3.048h.435l-1.829,3.4v2.177H250.3v-2.09l-1.829-3.4h.435l1.655,3.048Z" transform="translate(-35.342 -26.119)" fill="#333"/>
    <path id="Path_36" data-name="Path 36" d="M117.994,56.816h1.045V46.974h-.784a1.624,1.624,0,0,1-1.655,1.306v.871a2.632,2.632,0,0,0,1.394-.435v8.1Zm4.965-9.929c-1.481,0-2.265.958-2.265,2.526v1.481c0,1.394.523,2.352,1.829,2.352s1.306-.348,1.568-1.045v2.177c0,1.045-.348,1.568-1.219,1.568s-1.219-.523-1.219-1.394V54.29h-1.045v.174c0,1.481.7,2.439,2.265,2.439s2.265-.958,2.265-2.526V49.326a2.226,2.226,0,0,0-2.265-2.526h0Zm0,1.045c.784,0,1.219.523,1.219,1.394v1.481c0,.871-.348,1.394-1.219,1.394s-1.132-.523-1.132-1.394V49.326c0-.871.348-1.394,1.132-1.394Zm11.41,9.232h1.045l2.526-8.884v-.958H133.5v.958h3.31l-2.526,8.884ZM129.4,46.887a2.141,2.141,0,0,0-2.352,2.439v.348a1.907,1.907,0,0,0,1.132,2,2.028,2.028,0,0,0-1.132,2.09v.7a2.353,2.353,0,1,0,4.7,0v-.7a2.1,2.1,0,0,0-1.132-2.09,1.907,1.907,0,0,0,1.132-2v-.348a2.141,2.141,0,0,0-2.352-2.439Zm0,.958c.784,0,1.219.435,1.219,1.481v.435c0,.958-.435,1.394-1.219,1.394s-1.219-.435-1.219-1.394v-.435c0-1.045.435-1.481,1.219-1.481Zm0,4.355c.784,0,1.219.435,1.219,1.394v.784c0,1.045-.435,1.481-1.219,1.481s-1.219-.435-1.219-1.481v-.784c0-.958.435-1.394,1.219-1.394Z" transform="translate(-24.8 -23.719)" fill="#333"/>
    <path id="Path_37" data-name="Path 37" d="M12.245,51.781V48.645h2.787v-.958H11.2v9.319h3.832v-.958H12.245v-3.31H14.51v-.958H12.245ZM17.994,47.6c-1.394,0-2.09.871-2.09,2.352,0,2.613,3.135,2.787,3.135,4.877s-.348,1.306-1.045,1.306a1.151,1.151,0,0,1-1.132-1.306v-.61H15.9v.523c0,1.394.7,2.265,2.09,2.265s2.09-.871,2.09-2.265c0-2.613-3.135-2.787-3.135-4.877s.348-1.306,1.045-1.306,1.045.523,1.045,1.306v.348H20v-.261c0-1.394-.61-2.352-2-2.352h0Zm5.4,9.406V48.645h1.742v-.958H20.694v.958h1.742v8.361h.958Zm2.526-9.319v9.319h2.09c1.481,0,2.09-.784,2.09-2.177v-.784c0-1.045-.348-1.742-1.219-2,.784-.261,1.045-.871,1.045-1.829v-.435c0-1.394-.523-2.09-2-2.09h-2.09Zm1.045,3.919V48.558H28.01c.784,0,1.045.435,1.045,1.219V50.3c0,.958-.435,1.219-1.219,1.219h-.784Zm0,4.355V52.477h.958c.871,0,1.306.348,1.306,1.394v.784c0,.871-.348,1.219-1.132,1.219H26.965Z" transform="translate(-11.2 -23.823)" fill="#333"/>
    <path id="Path_38" data-name="Path 38" d="M167.9,68.3h14.458l-14.458.523Z" transform="translate(-31.419 -26.494)" fill="#333" fill-rule="evenodd"/>
    <path id="Path_39" data-name="Path 39" d="M284.971,69.2H270.6l14.371.61Z" transform="translate(-44.671 -26.61)" fill="#333" fill-rule="evenodd"/>
  </g>
</svg>
