<?xml version="1.0" encoding="utf-8"?>
<!-- Generator: Adobe Illustrator 26.1.0, SVG Export Plug-In . SVG Version: 6.00 Build 0)  -->
<svg version="1.1" xmlns="http://www.w3.org/2000/svg" xmlns:xlink="http://www.w3.org/1999/xlink" x="0px" y="0px"
	 viewBox="0 0 63 63" style="enable-background:new 0 0 63 63;" xml:space="preserve">
<style type="text/css">
	.st0{fill:#F16A85;}
	.st1{fill:none;}
	.st2{fill:#FFFFFF;}
	.st3{font-family:'MissFajardose-Regular';}
	.st4{font-size:16px;}
	.st5{fill-rule:evenodd;clip-rule:evenodd;fill:#333333;}
	.st6{fill:#333333;}
	.st7{fill-rule:evenodd;clip-rule:evenodd;fill:#FFFFFF;}
</style>
<g id="Layer_1">
	<g id="Group_5" transform="translate(-1077 -882)">
		<g id="Ellipse_2" transform="translate(1077 882)">
			<ellipse class="st0" cx="31.5" cy="31.4" rx="31.5" ry="31.4"/>
			<ellipse class="st1" cx="31.5" cy="31.4" rx="29.5" ry="29.4"/>
		</g>
		<text transform="matrix(1.0029 0 0 1 1089.8027 910.6201)" class="st2 st3 st4">HH</text>
		<text transform="matrix(1 0 0 1 1174.5361 928.9951)" class="st3 st4"> </text>
		<path class="st5" d="M1102.2,917c-0.4,0-0.8,0.4-0.8,0.9v0.4h1.9h0.1h0.2v0.2v0.1v5.7v0.1v0.2h-0.2h-0.1h-1.9v0.3
			c0,0.5,0.4,0.9,0.9,0.9h12.1c0.5,0,0.9-0.4,0.9-0.9v-6.9c0-0.5-0.3-0.8-0.8-0.9h-0.3l-0.2-0.9c-0.1-0.3-0.3-0.4-0.5-0.4h-1.7h-1.6
			c-0.3,0-0.5,0.2-0.5,0.4l-0.2,0.9H1102.2z M1101.4,918.7v5.2h1.6v-5.2H1101.4z M1109.5,919.9c-0.3-0.2-0.6-0.3-0.9-0.3
			c-0.9,0-1.7,0.8-1.7,1.7c0,0.7,0.5,1.4,1.1,1.6c-0.5-0.3-0.8-0.8-0.8-1.4c0-0.9,0.8-1.7,1.7-1.7
			C1109.2,919.8,1109.4,919.9,1109.5,919.9L1109.5,919.9z M1108.4,918.1c0.4,0,0.8,0.1,1.2,0.2l0,0c0.4,0.2,0.7,0.4,1,0.7l0,0l0,0
			c0.3,0.3,0.5,0.6,0.7,1l0,0c0.2,0.4,0.2,0.8,0.2,1.2c0,0.4-0.1,0.8-0.2,1.2l0,0c-0.2,0.4-0.4,0.7-0.7,1l0,0l0,0
			c-0.3,0.3-0.6,0.5-1,0.7l0,0c-0.4,0.2-0.8,0.2-1.2,0.2c-0.4,0-0.8-0.1-1.2-0.2l0,0c-0.4-0.2-0.7-0.4-1-0.7l0,0l0,0
			c-0.3-0.3-0.5-0.6-0.7-1l0,0c-0.2-0.4-0.2-0.8-0.2-1.2c0-0.4,0.1-0.8,0.2-1.2l0,0c0.2-0.4,0.4-0.7,0.7-1l0,0l0,0
			c0.3-0.3,0.6-0.5,1-0.7l0,0C1107.5,918.2,1107.9,918.1,1108.4,918.1L1108.4,918.1z M1109.9,919.8c-0.2-0.2-0.4-0.4-0.7-0.5
			c-0.3-0.1-0.5-0.2-0.8-0.2c-0.3,0-0.6,0.1-0.8,0.2c-0.3,0.1-0.5,0.3-0.7,0.5c-0.2,0.2-0.4,0.4-0.5,0.7c-0.1,0.3-0.2,0.5-0.2,0.8
			c0,0.3,0.1,0.6,0.2,0.8c0.1,0.3,0.3,0.5,0.5,0.7c0.2,0.2,0.4,0.4,0.7,0.5c0.2,0.1,0.5,0.2,0.8,0.2c0.3,0,0.6-0.1,0.8-0.2
			c0.3-0.1,0.5-0.3,0.7-0.5c0.2-0.2,0.4-0.4,0.5-0.7c0.1-0.2,0.2-0.5,0.2-0.8c0-0.3-0.1-0.6-0.2-0.8
			C1110.2,920.2,1110.1,920,1109.9,919.8L1109.9,919.8z"/>
		<path class="st6" d="M1116.7,923h0.3v-2.9h-0.2c-0.1,0.2-0.2,0.4-0.5,0.4v0.3c0.1,0,0.3-0.1,0.4-0.1V923z M1118.1,920.1
			c-0.4,0-0.7,0.3-0.7,0.7v0.4c0,0.4,0.2,0.7,0.5,0.7c0.2,0,0.4-0.1,0.5-0.3v0.6c0,0.3-0.1,0.5-0.4,0.5c-0.2,0-0.3-0.1-0.3-0.4v-0.1
			h-0.3v0.1c0,0.4,0.2,0.7,0.6,0.7c0.5,0,0.7-0.3,0.7-0.7v-1.5C1118.8,920.4,1118.6,920.1,1118.1,920.1L1118.1,920.1z M1118.1,920.4
			c0.2,0,0.3,0.1,0.3,0.4v0.4c0,0.3-0.1,0.4-0.3,0.4c-0.2,0-0.3-0.2-0.3-0.4v-0.4C1117.8,920.5,1117.9,920.4,1118.1,920.4
			L1118.1,920.4z M1119.3,923h0.3l0.7-2.6v-0.3h-1.3v0.3h1L1119.3,923z M1121.4,920.1c-0.4,0-0.7,0.3-0.7,0.7v0.1
			c0,0.3,0.1,0.5,0.3,0.6c-0.2,0.1-0.3,0.3-0.3,0.6v0.2c0,0.4,0.2,0.7,0.7,0.7c0.4,0,0.7-0.3,0.7-0.7v-0.2c0-0.3-0.1-0.5-0.3-0.6
			c0.2-0.1,0.3-0.3,0.3-0.6v-0.1C1122,920.3,1121.8,920.1,1121.4,920.1L1121.4,920.1z M1121.4,920.4c0.2,0,0.4,0.1,0.4,0.4v0.1
			c0,0.3-0.1,0.4-0.4,0.4c-0.2,0-0.4-0.1-0.4-0.4v-0.1C1121,920.5,1121.1,920.4,1121.4,920.4L1121.4,920.4z M1121.4,921.6
			c0.2,0,0.4,0.1,0.4,0.4v0.2c0,0.3-0.1,0.4-0.4,0.4c-0.2,0-0.4-0.1-0.4-0.4V922C1121,921.7,1121.1,921.6,1121.4,921.6L1121.4,921.6
			z"/>
		<path class="st6" d="M1094.7,921.4v-1h0.9v-0.3h-1.2v2.9h1.2v-0.3h-0.9v-1h0.7v-0.3H1094.7z M1096.5,920.1c-0.4,0-0.6,0.3-0.6,0.7
			c0,0.8,1,0.9,1,1.5c0,0.3-0.1,0.4-0.3,0.4c-0.2,0-0.3-0.1-0.3-0.4v-0.2h-0.3v0.2c0,0.4,0.2,0.7,0.6,0.7c0.4,0,0.6-0.3,0.6-0.7
			c0-0.8-1-0.9-1-1.5c0-0.3,0.1-0.4,0.3-0.4c0.2,0,0.3,0.1,0.3,0.4v0.1h0.3v-0.1C1097.1,920.4,1096.9,920.1,1096.5,920.1
			L1096.5,920.1z M1098.2,923v-2.6h0.5v-0.3h-1.4v0.3h0.5v2.6H1098.2z M1098.9,920.1v2.9h0.7c0.4,0,0.7-0.2,0.7-0.7v-0.2
			c0-0.3-0.1-0.5-0.4-0.6c0.3-0.1,0.3-0.3,0.3-0.6v-0.1c0-0.4-0.2-0.6-0.6-0.6H1098.9z M1099.3,921.3v-0.9h0.3
			c0.2,0,0.3,0.1,0.3,0.4v0.2c0,0.3-0.1,0.4-0.4,0.4H1099.3z M1099.3,922.7v-1.1h0.3c0.3,0,0.4,0.1,0.4,0.4v0.3
			c0,0.3-0.1,0.4-0.3,0.4H1099.3z"/>
		<path class="st2" d="M1099.9,932.6c0,0.2-0.1,0.4-0.2,0.5c-0.2,0.1-0.4,0.2-0.6,0.2h-0.4v0.9h-0.2v-2.3h0.6
			C1099.6,931.9,1099.9,932.1,1099.9,932.6L1099.9,932.6z M1098.6,933.1h0.3c0.3,0,0.4,0,0.6-0.1c0.1-0.1,0.2-0.2,0.2-0.4
			c0-0.2-0.1-0.3-0.2-0.4c-0.1-0.1-0.3-0.1-0.5-0.1h-0.4V933.1z M1102,934.2h-0.2v-1.1h-1.3v1.1h-0.2v-2.3h0.2v1h1.3v-1h0.2V934.2z
			 M1104.6,933c0,0.4-0.1,0.6-0.3,0.9c-0.2,0.2-0.4,0.3-0.7,0.3c-0.3,0-0.6-0.1-0.7-0.3c-0.2-0.2-0.3-0.5-0.3-0.9
			c0-0.4,0.1-0.6,0.3-0.9c0.2-0.2,0.4-0.3,0.7-0.3c0.3,0,0.6,0.1,0.7,0.3C1104.5,932.4,1104.6,932.7,1104.6,933L1104.6,933z
			 M1102.7,933c0,0.3,0.1,0.6,0.2,0.8c0.1,0.2,0.4,0.3,0.6,0.3c0.3,0,0.5-0.1,0.6-0.3c0.1-0.2,0.2-0.4,0.2-0.8
			c0-0.3-0.1-0.6-0.2-0.8c-0.1-0.2-0.4-0.3-0.6-0.3c-0.3,0-0.5,0.1-0.6,0.3C1102.8,932.5,1102.7,932.7,1102.7,933L1102.7,933z
			 M1105.7,934.2h-0.2v-2.1h-0.7v-0.2h1.6v0.2h-0.7V934.2z M1108.6,933c0,0.4-0.1,0.6-0.3,0.9c-0.2,0.2-0.4,0.3-0.7,0.3
			c-0.3,0-0.6-0.1-0.7-0.3c-0.2-0.2-0.3-0.5-0.3-0.9c0-0.4,0.1-0.6,0.3-0.9c0.2-0.2,0.4-0.3,0.7-0.3c0.3,0,0.6,0.1,0.7,0.3
			C1108.5,932.4,1108.6,932.7,1108.6,933L1108.6,933z M1106.7,933c0,0.3,0.1,0.6,0.2,0.8c0.1,0.2,0.4,0.3,0.6,0.3
			c0.3,0,0.5-0.1,0.6-0.3c0.1-0.2,0.2-0.4,0.2-0.8c0-0.3-0.1-0.6-0.2-0.8c-0.1-0.2-0.4-0.3-0.6-0.3c-0.3,0-0.5,0.1-0.6,0.3
			C1106.8,932.5,1106.7,932.7,1106.7,933L1106.7,933z M1110,933h0.8v1c-0.2,0.1-0.5,0.1-0.7,0.1c-0.4,0-0.6-0.1-0.8-0.3
			c-0.2-0.2-0.3-0.5-0.3-0.9c0-0.2,0-0.4,0.1-0.6c0.1-0.2,0.2-0.3,0.4-0.4c0.2-0.1,0.4-0.1,0.6-0.1c0.3,0,0.5,0,0.7,0.1l-0.1,0.1
			c-0.2-0.1-0.4-0.1-0.6-0.1c-0.3,0-0.5,0.1-0.7,0.3c-0.2,0.2-0.3,0.4-0.3,0.8c0,0.3,0.1,0.6,0.3,0.8c0.2,0.2,0.4,0.3,0.7,0.3
			c0.2,0,0.4,0,0.5-0.1v-0.8h-0.7V933z M1111.6,933.2v1h-0.2v-2.3h0.5c0.3,0,0.5,0.1,0.6,0.2c0.1,0.1,0.2,0.3,0.2,0.5
			c0,0.2,0,0.3-0.1,0.4c-0.1,0.1-0.2,0.2-0.4,0.2l0.6,1h-0.2l-0.6-1H1111.6z M1111.6,933.1h0.4c0.2,0,0.3,0,0.4-0.1
			c0.1-0.1,0.2-0.2,0.2-0.4c0-0.2-0.1-0.3-0.2-0.4c-0.1-0.1-0.3-0.1-0.5-0.1h-0.4V933.1z M1114.5,933.4h-0.9l-0.3,0.8h-0.2l0.9-2.3
			h0.1l0.9,2.3h-0.2L1114.5,933.4z M1113.6,933.2h0.8l-0.3-0.8c0-0.1-0.1-0.2-0.1-0.3c0,0.1-0.1,0.2-0.1,0.3L1113.6,933.2z
			 M1116.7,932.6c0,0.2-0.1,0.4-0.2,0.5c-0.2,0.1-0.4,0.2-0.6,0.2h-0.4v0.9h-0.2v-2.3h0.6C1116.4,931.9,1116.7,932.1,1116.7,932.6
			L1116.7,932.6z M1115.5,933.1h0.3c0.3,0,0.4,0,0.6-0.1c0.1-0.1,0.2-0.2,0.2-0.4c0-0.2-0.1-0.3-0.2-0.4c-0.1-0.1-0.3-0.1-0.5-0.1
			h-0.4V933.1z M1118.9,934.2h-0.2v-1.1h-1.3v1.1h-0.2v-2.3h0.2v1h1.3v-1h0.2V934.2z M1120.1,933.2l0.7-1.2h0.2l-0.8,1.4v0.9h-0.2
			v-0.9l-0.8-1.4h0.2L1120.1,933.2z"/>
		<polygon class="st7" points="1091.9,932.9 1097.8,932.9 1091.9,933.2 		"/>
		<polygon class="st7" points="1127.5,932.9 1121.5,932.9 1127.5,933.2 		"/>
	</g>
</g>
<g id="Layer_2">
</g>
</svg>
